<svg width="153" height="55" viewBox="0 0 153 55" fill="none" xmlns="http://www.w3.org/2000/svg">
<path d="M142.397 29.0479C142.11 28.8086 141.919 28.6491 141.727 28.4896C137.484 24.9165 133.241 21.3594 128.998 17.7863C128.871 17.6746 128.679 17.5629 128.536 17.5948C126.59 17.866 124.644 18.1531 122.697 18.4562C122.586 18.4722 122.49 18.5998 122.394 18.6795C122.49 18.7752 122.57 18.9188 122.666 18.9507C122.969 19.0624 123.288 19.1102 123.607 19.19C124.771 19.509 125.425 20.3704 125.425 21.5667C125.425 26.5435 125.425 31.5203 125.425 36.5131C125.425 37.2787 125.186 37.9487 124.755 38.5548C124.293 39.2088 123.623 39.5917 122.921 39.9267C122.729 40.0224 122.554 40.1659 122.331 40.3095C122.761 40.5488 135.283 40.5488 135.682 40.3254C135.538 40.2138 135.427 40.1021 135.299 40.0224C135.092 39.9107 134.868 39.815 134.661 39.7033C133.305 39.0015 132.587 37.9008 132.587 36.3536C132.587 32.5572 132.587 28.7608 132.587 24.9643C132.587 24.8208 132.603 24.6772 132.603 24.4699C132.779 24.5975 132.89 24.6772 132.986 24.7729C135.841 27.1656 138.681 29.5902 141.552 31.967C142.126 32.4295 142.525 32.8921 142.413 33.6737C142.381 33.8492 142.445 34.0406 142.461 34.2161C142.924 38.1082 144.838 40.9635 148.395 42.6862C149.368 43.1488 149.543 43.0372 149.543 41.9684C149.543 33.6578 149.543 25.3472 149.543 17.0206C149.543 16.0635 149.783 15.1862 150.389 14.4684C150.899 13.8622 151.553 13.3837 152.144 12.8573C152.303 12.7137 152.463 12.5702 152.622 12.4426C152.606 12.3947 152.59 12.3628 152.574 12.315C152.415 12.3309 152.255 12.315 152.112 12.3469C149.878 12.8414 147.645 13.3358 145.412 13.8303C143.53 14.2451 141.648 14.6598 139.781 15.0905C139.638 15.1224 139.51 15.25 139.383 15.3457C139.51 15.4414 139.622 15.5371 139.765 15.6169C139.877 15.6807 140.005 15.6807 140.132 15.7126C141.695 16.1273 142.413 17.0525 142.413 18.6636C142.413 21.9495 142.413 25.2515 142.413 28.5374C142.397 28.6491 142.397 28.7767 142.397 29.0479ZM26.1124 22.1091C26.1762 22.1091 26.224 22.1091 26.2878 22.125C26.3516 21.8538 26.4793 21.5827 26.4952 21.3115C26.575 19.3814 26.6547 17.4353 26.7026 15.5052C26.7185 15.0905 26.6228 14.6598 26.5909 14.2451C26.559 13.9101 26.3995 13.7665 26.0326 13.7825C25.0596 13.7984 24.1344 13.5751 23.2571 13.1763C22.4914 12.8254 21.7417 12.4426 20.992 12.0757C15.3293 9.22042 8.47025 10.4646 4.27506 15.0745C-0.813407 20.6734 -1.41956 29.1117 2.87134 35.3486C5.15238 38.6665 8.24693 40.804 12.2507 41.458C15.3931 41.9684 18.5036 41.5696 21.5344 40.5966C23.3688 40.0064 25.0596 39.145 26.5112 37.837C26.7823 37.5978 26.9099 37.3425 26.9099 36.9597C26.894 35.0456 26.9259 33.1314 26.9099 31.2172C26.9099 30.0209 27.5001 29.2233 28.5529 28.7608C28.856 28.6172 29.191 28.5534 29.51 28.4258C29.6855 28.346 29.8131 28.1865 29.9726 28.0589C29.7812 27.9951 29.6057 27.8994 29.4143 27.8994C24.7725 27.8834 20.1306 27.8994 15.4888 27.8994C15.3931 27.8994 15.2814 27.8834 15.2017 27.9153C15.0741 27.9632 14.9465 28.0429 14.8189 28.1227C14.9146 28.2503 14.9784 28.4417 15.09 28.4896C15.3612 28.6172 15.6802 28.681 15.9674 28.7927C16.7171 29.0798 17.5306 29.3031 18.2165 29.7019C19.2533 30.324 19.7957 31.297 19.7797 32.5572C19.7478 33.9449 19.7957 35.3486 19.7638 36.7364C19.7478 37.4702 19.6521 38.2199 19.5245 38.9536C19.4288 39.5119 19.046 39.8309 18.4717 39.8788C17.0042 39.9905 15.6164 39.7831 14.3244 39.0493C12.5059 38.0125 11.2458 36.4812 10.3365 34.6468C8.26288 30.4197 8.05551 26.0012 9.18805 21.487C9.7623 19.2059 10.7832 17.1323 12.4262 15.4255C13.7501 14.0537 15.2974 13.1285 17.2594 13.0487C19.4766 12.953 21.2313 13.926 22.6988 15.4733C24.3418 17.212 25.2989 19.3176 25.9369 21.5986C25.9688 21.7581 26.0486 21.9336 26.1124 22.1091ZM85.5788 21.6146C85.5469 21.6624 85.515 21.7103 85.4831 21.7741C85.6107 21.8857 85.7064 22.0612 85.85 22.1091C86.9666 22.5557 87.3494 23.4171 87.3494 24.5496C87.3494 28.9043 87.3494 33.2431 87.3494 37.5978C87.3494 37.9806 87.3175 38.3634 87.2696 38.7303C87.0463 40.1021 86.2807 41.1549 85.3076 42.0801C85.18 42.2077 85.0524 42.3353 84.845 42.5267C86.1052 42.5267 87.142 42.1758 88.1789 41.7611C89.9016 41.0592 91.6722 40.5009 93.5545 40.5009C93.6502 40.5009 93.7459 40.4371 93.8575 40.4052C93.7937 40.3095 93.7618 40.1978 93.6821 40.1021C93.6342 40.0383 93.5385 40.0064 93.4587 39.9745C92.4538 39.5757 92.0391 38.7941 92.0391 37.7573C92.0391 36.5131 92.0391 35.2848 92.0391 34.0406C92.0391 33.1952 92.4538 32.7805 93.3152 32.7805C95.006 32.7805 96.6969 32.7805 98.3877 32.7805C99.3448 32.7805 99.7276 33.1793 99.7436 34.1523C99.7436 35.2689 99.7276 36.3695 99.7436 37.4861C99.7595 38.6665 99.3926 39.5757 98.2122 40.0383C98.0846 40.0862 98.0049 40.2616 97.9092 40.3892C98.0527 40.4371 98.1803 40.5009 98.3239 40.5009C100.812 40.5009 103.301 40.5009 105.789 40.5009C105.933 40.5009 106.076 40.4052 106.22 40.3573C106.108 40.2457 106.028 40.0702 105.901 40.0224C104.784 39.5757 104.401 38.7303 104.417 37.5818C104.433 33.2909 104.433 29 104.417 24.7091C104.417 23.4968 104.736 22.5557 105.965 22.0931C106.092 22.0453 106.172 21.8698 106.268 21.7581C106.06 21.6465 105.917 21.6305 105.773 21.6305C103.301 21.6305 100.828 21.6305 98.3398 21.6305C98.1963 21.6305 98.0368 21.7103 97.8932 21.7581C98.0049 21.8857 98.1325 22.0134 98.2441 22.125C98.276 22.1569 98.3239 22.1729 98.3558 22.1888C99.1853 22.5238 99.6478 23.1618 99.6797 24.0232C99.7435 25.5226 99.7276 27.038 99.6957 28.5374C99.6798 29.1436 99.2331 29.5583 98.611 29.5583C96.7607 29.5743 94.9263 29.5743 93.0759 29.5583C92.4698 29.5583 92.0231 29.0957 92.0231 28.5055C92.0072 27.038 91.9912 25.5864 92.0391 24.1189C92.071 23.2416 92.4857 22.5716 93.3152 22.1888C93.4747 22.125 93.6342 22.0453 93.7459 21.9495C93.9054 21.8219 93.8894 21.6784 93.6502 21.6305C93.5544 21.6146 93.4587 21.6305 93.363 21.6305C90.9065 21.6305 88.4341 21.6305 85.9776 21.6305C85.85 21.6146 85.7064 21.6146 85.5788 21.6146ZM52.751 27.1337C52.8786 27.2932 52.9584 27.373 53.0382 27.4687C55.7977 31.0099 58.5733 34.567 61.3328 38.1082C62.0347 39.0015 62.7365 39.9107 63.4703 40.7721C64.1722 41.6015 65.0495 42.1917 66.1342 42.447C66.2618 42.4789 66.4053 42.4629 66.5968 42.4789C66.3415 42.0003 66.1023 41.6015 65.9109 41.1868C65.2569 39.7352 65.1133 38.188 65.1133 36.6088C65.1133 32.6369 65.1292 28.681 65.0973 24.7091C65.0973 23.4968 65.4164 22.5238 66.6606 22.0612C66.7882 22.0134 66.8679 21.8379 67.0434 21.6305C66.7722 21.6146 66.6446 21.5986 66.517 21.5986C64.0126 21.5986 61.5083 21.5986 59.0039 21.5986C58.9242 21.5986 58.7966 21.5667 58.7647 21.6146C58.7009 21.6784 58.6371 21.8379 58.669 21.8857C58.7328 21.9815 58.8604 22.0612 58.972 22.0931C60.0567 22.5238 60.4396 23.3533 60.4396 24.4539C60.4236 27.1816 60.4396 29.9092 60.4396 32.6369C60.4396 32.8283 60.4396 33.0197 60.4396 33.1952C60.2641 33.1155 60.1684 33.0038 60.0727 32.8762C57.2014 29.1914 54.3302 25.5067 51.459 21.8379C51.3633 21.7262 51.2038 21.5827 51.0602 21.5827C49.5289 21.5667 47.9976 21.5667 46.4662 21.5827C46.3865 21.5827 46.2908 21.6465 46.211 21.6943C46.2589 21.79 46.2908 21.9017 46.3546 21.9655C46.4024 22.0293 46.4981 22.0612 46.5779 22.0931C47.6626 22.5078 48.0454 23.3692 48.0454 24.4539C48.0454 28.8246 48.0454 33.1952 48.0454 37.5818C48.0454 38.6825 47.6626 39.5279 46.5779 39.9586C46.4184 40.0224 46.2908 40.1659 46.1631 40.2776C46.1791 40.3254 46.1951 40.3573 46.211 40.4052C46.3705 40.4211 46.53 40.453 46.6895 40.453C48.6994 40.453 50.7093 40.453 52.7191 40.453C53.2455 40.453 53.756 40.453 54.2824 40.453C54.3621 40.453 54.4897 40.3892 54.5057 40.3254C54.5216 40.2616 54.4578 40.15 54.41 40.0862C54.3621 40.0224 54.2664 39.9905 54.2026 39.9586C53.102 39.5279 52.7191 38.6825 52.7351 37.5659C52.751 34.248 52.7351 30.9301 52.7351 27.6123C52.7351 27.5006 52.751 27.357 52.751 27.1337ZM81.4953 17.9936C80.7137 18.3924 79.9161 18.201 79.1345 18.0415C77.5712 17.7065 75.9921 17.3715 74.381 17.6746C71.8926 18.1372 69.9784 19.3654 69.0054 21.7741C67.9526 24.3741 68.9416 27.7718 71.2067 29.5264C71.6374 29.8614 72.084 30.1804 72.5306 30.4994C74.5405 31.8872 76.5504 33.275 78.5602 34.6787C79.2142 35.1413 79.8044 35.6677 80.0277 36.4652C80.586 38.491 79.3259 40.7083 76.8375 40.7242C74.1736 40.7402 72.0521 39.5598 70.441 37.5021C69.6913 36.545 69.1171 35.4443 68.4631 34.4235C68.3355 34.2161 68.2078 33.9928 68.0164 33.6737C67.9686 33.8971 67.9367 33.9928 67.9207 34.0885C67.6495 36.0824 67.7453 38.0444 68.3035 39.9745C68.5109 40.7083 68.8459 41.3942 69.4042 41.9365C70.4729 41.3782 71.5576 41.4261 72.6582 41.777C74.6203 42.4151 76.6142 42.5267 78.6559 42.2715C81.8143 41.8727 83.9518 39.9745 84.526 36.9597C85.0684 34.0725 84.542 31.4725 82.2769 29.4148C81.7345 28.9203 81.1284 28.4736 80.5222 28.0429C78.4964 26.6392 76.4547 25.2674 74.4448 23.8478C73.9344 23.4809 73.4399 23.0502 73.1049 22.5397C72.1797 21.1839 72.8656 19.3973 74.4607 18.9826C76.5663 18.4403 79.1823 18.9507 80.586 21.5986C81.0805 22.5238 81.7345 23.1618 82.6278 23.6244C83.0426 23.8318 83.4413 24.0711 83.8561 24.2784C83.9677 24.3422 84.1113 24.3582 84.2389 24.406C84.2708 24.3741 84.3187 24.3422 84.3506 24.3103C83.7444 22.0612 82.7873 19.9716 81.4953 17.9936ZM28.0265 41.2825C28.0584 41.3144 28.0744 41.3463 28.1063 41.3782C28.3137 41.3463 28.521 41.3463 28.7284 41.2985C31.5039 40.6126 34.3273 40.4371 37.1826 40.485C39.5434 40.5169 41.9042 40.485 44.2649 40.485C44.4564 40.485 44.6318 40.5328 44.7435 40.2616C45.3337 38.6186 45.7484 36.9597 45.7325 35.2051C45.7325 35.0137 45.6687 34.8222 45.6368 34.6308C45.222 35.3486 44.887 36.0505 44.4564 36.6726C43.4355 38.1082 42.0477 38.8579 40.2452 38.826C39.1286 38.7941 38.028 38.826 36.9114 38.826C36.0979 38.826 35.6832 38.4113 35.6832 37.6137C35.6832 36.6566 35.6832 35.6996 35.6832 34.7425C35.6832 33.6578 35.6832 33.6578 36.7359 33.4185C39.352 32.8602 42.0158 32.6369 44.6956 32.605C44.8711 32.605 45.0466 32.5891 45.2858 32.5731C45.1901 32.3817 45.1263 32.2381 45.0466 32.1105C44.7275 31.5841 44.1692 31.3927 43.6269 31.1853C42.9729 30.9461 42.6698 30.4675 42.6379 29.8135C42.622 29.5424 42.622 29.2393 42.6858 28.9681C42.7655 28.6172 42.606 28.4417 42.3029 28.4098C41.8882 28.362 41.4575 28.2822 41.0428 28.346C39.7826 28.5693 38.4906 28.7608 37.2623 29.1595C34.1997 30.1645 31.5199 31.7915 29.5419 34.4075C28.8879 35.2689 28.3137 36.1621 27.867 37.183C28.9039 36.5928 29.8928 36.0345 30.9137 35.4603C31.3284 38.1242 29.9726 39.8469 28.0265 41.2825ZM109.155 40.2616C109.171 40.3095 109.187 40.3573 109.187 40.4211C109.298 40.4371 109.426 40.485 109.538 40.485C112.999 40.485 116.461 40.485 119.922 40.485C120.034 40.485 120.145 40.3892 120.273 40.3414C120.177 40.2616 120.081 40.134 119.97 40.0862C119.555 39.9426 119.124 39.8469 118.726 39.6874C117.673 39.2567 117.226 38.5708 117.226 37.4383C117.226 33.1952 117.226 28.9362 117.226 24.6932C117.226 23.4809 117.721 22.7631 118.885 22.3483C119.236 22.2207 119.587 22.141 119.922 22.0293C120.05 21.9814 120.177 21.8698 120.337 21.7741C119.826 21.5348 109.426 21.5827 109.107 21.8219C109.266 21.9176 109.394 21.9974 109.538 22.0612C109.857 22.1729 110.192 22.2526 110.511 22.3483C111.691 22.7471 112.217 23.4809 112.217 24.7091C112.217 28.9522 112.217 33.2112 112.217 37.4542C112.217 38.6187 111.739 39.3205 110.638 39.7352C110.303 39.8629 109.936 39.9426 109.586 40.0543C109.458 40.0862 109.298 40.1819 109.155 40.2616ZM67.9526 14.5641C67.7293 13.9739 67.6336 13.5273 67.0434 13.272C66.3096 12.953 65.7992 12.2831 65.3685 11.5972C65.0814 11.1186 64.7943 10.6241 64.4912 10.1615C64.0446 9.45969 63.4544 9.22042 62.6408 9.41183C59.7058 10.1296 56.8027 10.9591 53.9793 12.0438C51.5706 12.969 49.3534 14.2132 47.3914 15.904C47.1681 16.1114 47.0883 16.2868 47.1681 16.5899C47.3435 17.2599 47.7902 17.6746 48.3166 18.0415C49.9755 19.174 51.8418 19.6685 53.8357 19.7642C54.1069 19.7802 54.3781 19.7642 54.6492 19.7642C54.6652 19.7164 54.6652 19.6685 54.6811 19.6207C54.3143 19.4611 53.9633 19.3016 53.5965 19.1421C53.102 18.9348 52.6234 18.7433 52.6394 18.0415C52.1608 18.1691 51.7621 18.2967 51.3473 18.4084C51.3314 18.3765 51.3154 18.3286 51.2995 18.2967C51.4271 18.2329 51.5387 18.1531 51.6663 18.0893C53.1977 17.3237 54.7928 16.7654 56.4517 16.3666C59.323 15.6807 62.2421 15.4095 65.1611 15.0745C66.0863 14.9788 66.9796 14.7555 67.9526 14.5641ZM97.9251 19.6047C97.973 19.6685 97.973 19.6845 97.9889 19.7004C98.0208 19.7164 98.0687 19.7323 98.1006 19.7323C100.525 19.7961 102.758 19.2378 104.688 17.7065C105.023 17.4513 105.215 17.0046 105.438 16.6218C105.582 16.3506 105.502 16.1114 105.247 15.8881C103.747 14.596 102.088 13.5432 100.286 12.7297C96.968 11.2462 93.4747 10.2573 89.9495 9.39588C89.1519 9.20446 88.5936 9.45969 88.147 10.1456C87.8439 10.6241 87.5727 11.1027 87.2696 11.5812C86.839 12.2671 86.3285 12.953 85.5948 13.2561C84.9886 13.5113 84.8929 13.942 84.7174 14.4524C84.845 14.5003 84.9407 14.5481 85.0524 14.5801C85.8819 14.7396 86.6954 14.9469 87.5249 15.0586C89.7421 15.3617 91.9593 15.585 94.1606 15.9359C96.5533 16.3028 98.8503 16.9887 101.004 18.0893C101.131 18.1531 101.243 18.2329 101.371 18.2967C101.355 18.3286 101.339 18.3605 101.323 18.4084C100.988 18.3127 100.669 18.185 100.334 18.1212C100.222 18.0893 99.9828 18.1691 99.9828 18.2329C99.935 18.7433 99.5362 18.9188 99.1534 19.0783C98.7546 19.2538 98.3398 19.4292 97.9251 19.6047ZM84.4144 8.21548C84.4144 8.15168 84.4144 8.10383 84.4144 8.04002C84.191 7.94431 83.9837 7.8167 83.7444 7.73695C83.0745 7.51363 82.4205 7.27436 81.7505 7.08294C79.4535 6.42894 77.986 4.96142 77.332 2.66443C77.1246 1.93067 76.8853 1.18096 76.6461 0.463156C76.5982 0.303643 76.4547 0.176032 76.359 0.0324707C76.2632 0.176032 76.1516 0.303643 76.0559 0.447204C76.024 0.495058 76.024 0.558863 76.008 0.606717C75.6411 1.6595 75.3062 2.71229 74.9233 3.74912C74.3969 5.18474 73.3761 6.17372 71.9245 6.70011C70.9515 7.05104 69.9625 7.38602 68.9895 7.73695C68.7342 7.83265 68.495 7.96026 68.2557 8.07192C68.2557 8.11978 68.2557 8.18358 68.2557 8.23144C68.495 8.34309 68.7183 8.45475 68.9576 8.53451C70.122 8.9652 71.2864 9.34803 72.4349 9.82657C73.2325 10.1456 73.9344 10.6401 74.3331 11.4376C74.7957 12.3628 75.1945 13.3199 75.5773 14.277C75.8007 14.8193 75.9123 15.4095 76.1037 15.9678C76.1356 16.0635 76.2632 16.2071 76.343 16.2071C76.4228 16.2071 76.5185 16.0795 76.5982 15.9838C76.6461 15.92 76.6461 15.8243 76.678 15.7445C77.1087 14.5322 77.5234 13.3039 78.0019 12.1076C78.4326 11.0389 79.2302 10.2572 80.2989 9.81061C81.4315 9.34803 82.58 8.9652 83.7285 8.55046C83.9358 8.42285 84.1751 8.31119 84.4144 8.21548ZM44.6637 27.1656C44.6956 27.1656 44.7275 27.1656 44.7594 27.1656C44.7754 26.9264 44.8232 26.6871 44.8232 26.4478C44.8073 24.8846 44.4564 23.3852 43.9619 21.9176C43.8821 21.6624 43.7386 21.5986 43.4993 21.6146C42.5103 21.6305 41.5213 21.6465 40.5483 21.6146C38.3789 21.5348 36.1936 21.487 34.0242 21.2636C32.445 21.1041 30.8978 20.7053 29.3345 20.4023C29.1431 20.3704 28.9358 20.3544 28.7284 20.3385C28.7284 20.4182 28.7284 20.4342 28.7443 20.4342C28.8241 20.498 28.8879 20.5777 28.9677 20.6256C30.4033 21.5189 30.9935 22.8588 30.9935 24.5018C30.9935 26.8625 31.0094 29.2233 31.0094 31.5841C31.0094 31.7277 31.0094 31.8713 31.0094 32.0946C32.3812 30.7866 33.8328 29.7976 35.4279 29C35.5555 28.9362 35.6672 28.7129 35.6832 28.5534C35.6991 27.1816 35.6832 25.7938 35.6991 24.422C35.6991 23.6085 36.1138 23.1937 36.9114 23.1937C37.9801 23.1937 39.0489 23.1778 40.1176 23.1937C40.4526 23.1937 40.7876 23.2416 41.1066 23.3373C42.4944 23.7042 43.3717 24.6772 44.0576 25.8895C44.2809 26.3043 44.4564 26.7509 44.6637 27.1656ZM55.7499 46.7538C55.5585 46.69 55.5106 46.6581 55.4468 46.6581C54.2186 46.6581 53.0063 46.6421 51.778 46.6741C51.6504 46.6741 51.4749 46.8495 51.4271 46.9931C50.8688 48.2213 50.3264 49.4496 49.7841 50.6778C49.7203 50.8054 49.6565 50.933 49.5608 51.1404C48.9227 49.6888 48.3166 48.3489 47.7264 46.9931C47.6307 46.7538 47.5031 46.6421 47.2319 46.6581C46.0196 46.6741 44.8073 46.6581 43.6109 46.6741C43.5152 46.6741 43.4195 46.706 43.1962 46.7379C43.3876 46.8655 43.4833 46.9293 43.579 46.9771C44.4085 47.2483 44.7116 47.8545 44.6956 48.6999C44.6637 50.1036 44.6956 51.5073 44.6956 52.927C44.6956 53.8681 44.3766 54.2988 43.4674 54.6018C43.2919 54.6657 43.1324 54.7454 42.9569 54.8092C42.9729 54.8411 42.9729 54.873 42.9888 54.9209C44.1533 54.9209 45.3018 54.9209 46.53 54.9209C46.4503 54.8092 46.4184 54.7135 46.3546 54.6816C45.6049 54.3466 45.4613 53.7086 45.4613 52.9748C45.4772 51.7306 45.4613 50.4705 45.4613 49.2263C45.4613 49.0348 45.4613 48.8594 45.4613 48.668C45.5091 48.668 45.5411 48.652 45.5889 48.652C46.53 50.7576 47.4552 52.8472 48.3963 54.9528C48.4442 54.9687 48.492 54.9847 48.5399 55.0006C48.7632 54.6338 49.0344 54.2828 49.2258 53.884C49.9277 52.3368 50.6136 50.7895 51.2995 49.2263C51.3633 49.0827 51.443 48.9551 51.5068 48.8275C51.5547 50.4386 51.5866 52.0337 51.5547 53.6129C51.5547 54.0595 51.2835 54.3945 50.8688 54.6018C50.7571 54.6657 50.6614 54.7614 50.5498 54.8411C50.5657 54.873 50.5657 54.9049 50.5817 54.9209C52.3842 54.9209 54.1867 54.9209 56.0051 54.9209C56.0211 54.873 56.037 54.8411 56.037 54.7933C55.8296 54.7135 55.6223 54.6337 55.4149 54.554C54.6492 54.2828 54.3302 53.8362 54.3302 53.0386C54.3302 51.5392 54.3462 50.0238 54.3302 48.5244C54.3302 47.7906 54.6333 47.2962 55.3192 47.025C55.399 46.9612 55.5106 46.8814 55.7499 46.7538ZM66.9158 51.6668C67.2029 51.6668 67.49 51.6668 67.7612 51.6668C68.6704 51.6668 69.5477 51.4913 70.3294 50.9969C71.9085 50.0238 71.9085 48.333 70.3453 47.3281C69.5796 46.8336 68.7183 46.6581 67.8091 46.6581C66.2777 46.6581 64.7464 46.6581 63.2151 46.6581C63.0875 46.6581 62.9599 46.6741 62.8163 46.69C62.8004 46.7219 62.8004 46.7698 62.7844 46.8017C62.912 46.8655 63.0237 46.9452 63.1513 46.9931C63.8372 47.2483 64.1562 47.7587 64.1562 48.4925C64.1562 50.0238 64.1403 51.5552 64.1562 53.0865C64.1562 53.7245 63.8531 54.1552 63.3108 54.4264C63.1353 54.5061 62.9439 54.554 62.7525 54.6337C62.6408 54.6816 62.5451 54.7614 62.4494 54.8092C62.4654 54.8252 62.4813 54.8571 62.4813 54.873C64.5071 54.873 66.533 54.873 68.5588 54.873C68.5747 54.8252 68.5747 54.7933 68.5907 54.7454C68.3674 54.6657 68.16 54.5859 67.9367 54.5061C67.4103 54.3307 66.9796 54.0116 66.8998 53.4374C66.8679 52.8951 66.9158 52.2889 66.9158 51.6668ZM82.3885 46.4507C82.4205 46.5783 82.4364 46.69 82.4843 46.7538C82.7076 47.1047 82.6438 47.4078 82.4843 47.7747C81.6229 49.6729 80.7775 51.5871 79.932 53.5012C79.6768 54.0755 79.294 54.4423 78.6878 54.6018C78.5443 54.6338 78.4007 54.7295 78.2731 54.7933C78.2891 54.8252 78.2891 54.8411 78.305 54.873C79.4854 54.873 80.6658 54.873 81.8303 54.873C81.8303 54.8411 81.8462 54.7933 81.8462 54.7614C81.6548 54.6816 81.4634 54.6018 81.2719 54.538C80.7137 54.3466 80.5701 54.0595 80.7615 53.5012C80.8891 53.1503 81.0327 52.7994 81.2241 52.4644C81.2879 52.3368 81.4793 52.2092 81.6229 52.2092C82.3088 52.1773 82.9947 52.1932 83.6965 52.1932C84.9248 52.1932 84.9248 52.1932 85.4033 53.3257C85.7064 54.0595 85.5788 54.3307 84.8291 54.5859C84.6855 54.6337 84.542 54.7135 84.3984 54.7933C84.4144 54.8252 84.4303 54.8571 84.4463 54.889C86.2328 54.889 88.0034 54.889 89.7899 54.889C89.8059 54.8571 89.8059 54.8252 89.8218 54.7933C89.6942 54.7295 89.5826 54.6497 89.455 54.6178C88.801 54.4583 88.4022 54.0276 88.147 53.4215C87.1899 51.2042 86.2009 49.0029 85.2119 46.8017C85.1481 46.6581 84.9886 46.4667 84.8769 46.4667C84.0475 46.4348 83.234 46.4507 82.3885 46.4507ZM120.64 54.9049C120.656 54.8571 120.672 54.8252 120.688 54.7773C120.48 54.6976 120.289 54.6178 120.081 54.554C119.284 54.2669 118.965 53.8202 118.949 52.9748C118.949 51.3318 118.949 49.6888 118.949 48.0459C118.949 47.9023 118.949 47.7428 118.949 47.4876C119.651 47.5673 120.305 47.5992 120.911 47.7428C121.597 47.9023 121.724 48.6839 122.107 49.1784C122.139 49.1625 122.171 49.1306 122.219 49.1146C122.219 48.317 122.219 47.5195 122.219 46.7219C119.108 46.7219 116.046 46.7219 112.967 46.7219C112.967 47.5514 112.967 48.333 112.967 49.1306C112.999 49.1465 113.031 49.1784 113.079 49.1944C113.478 48.6999 113.573 47.9023 114.275 47.7428C114.897 47.5992 115.551 47.5833 116.237 47.5035C116.237 47.7906 116.237 47.9342 116.237 48.0937C116.237 49.6729 116.237 51.2361 116.237 52.8153C116.237 53.9319 115.982 54.2828 114.929 54.6337C114.786 54.6816 114.658 54.7614 114.53 54.8252C114.546 54.8571 114.546 54.889 114.562 54.9209C116.588 54.9049 118.614 54.9049 120.64 54.9049ZM105.135 49.4336C105.183 49.4336 105.231 49.4177 105.279 49.4177C105.231 48.7318 105.199 48.0299 105.119 47.344C105.119 47.2802 104.88 47.1685 104.8 47.1845C104.226 47.3759 103.731 47.1207 103.205 46.9612C101.371 46.4029 99.6319 46.5624 98.1006 47.7906C96.1386 49.3539 96.1226 52.1134 98.0368 53.7245C99.3448 54.8252 100.86 55.1282 102.503 54.8252C103.699 54.6178 104.704 54.0436 105.295 52.927C105.39 52.7355 105.454 52.5282 105.534 52.3368C105.502 52.3208 105.47 52.3049 105.438 52.2889C105.374 52.3846 105.295 52.4803 105.231 52.576C104.481 53.6926 103.205 54.1712 101.913 53.8043C100.11 53.3098 99.1693 51.4594 99.7755 49.5453C100.126 48.4446 100.812 47.679 102.009 47.5035C103.269 47.3281 104.178 47.8864 104.848 48.9232C104.944 49.0987 105.039 49.2582 105.135 49.4336ZM30.3395 46.69C30.4033 46.7857 30.4192 46.8495 30.4511 46.8495C30.6106 46.9133 30.7702 46.9771 30.9297 47.025C31.7591 47.3121 32.0782 47.7428 32.0782 48.6201C32.0782 50.0079 32.0782 51.3956 32.0782 52.7993C32.0782 53.9 31.8229 54.2509 30.7702 54.6178C30.6266 54.6657 30.5149 54.7454 30.3714 54.8092C30.3873 54.8411 30.4033 54.8571 30.4192 54.889C32.445 54.889 34.4709 54.889 36.5445 54.889C36.4807 54.7933 36.4648 54.7454 36.4329 54.7295C36.2893 54.6657 36.1457 54.6178 36.0022 54.5699C35.1249 54.2828 34.8058 53.8362 34.8058 52.927C34.8058 51.5711 34.8058 50.2312 34.8058 48.8753C34.8058 47.679 35.0292 47.36 36.1617 46.9612C36.2893 46.9133 36.401 46.8336 36.5126 46.7698C36.4967 46.7379 36.4807 46.7219 36.4648 46.69C34.439 46.69 32.4291 46.69 30.3395 46.69ZM111.643 28.5055C110.814 28.4417 110.016 28.3301 109.203 28.3301C108.357 28.3301 108.309 28.4577 108.357 29.2871C108.437 30.4197 108.102 30.978 107.145 31.2651C106.874 31.3449 106.587 31.4884 106.363 31.6639C106.108 31.8872 105.917 32.1903 105.646 32.5093C107.735 32.6369 109.665 32.7645 111.627 32.8921C111.643 31.4725 111.643 30.0528 111.643 28.5055ZM123.096 37.1352C121.916 34.6149 120.209 32.5731 117.784 31.0577C117.784 32.1743 117.784 33.2112 117.8 34.248C117.8 34.3437 117.912 34.5032 118.008 34.5511C119.762 35.2529 121.453 36.1302 123.096 37.1352Z" fill="white"/>
<path fill-rule="evenodd" clip-rule="evenodd" d="M142.397 29.0473C142.397 28.7761 142.397 28.6485 142.397 28.5049C142.397 25.219 142.397 21.9171 142.397 18.6311C142.397 17.02 141.679 16.0948 140.116 15.6801C139.988 15.6482 139.861 15.6322 139.749 15.5844C139.606 15.5206 139.494 15.4089 139.366 15.3132C139.494 15.2335 139.622 15.0899 139.765 15.058C141.647 14.6273 143.514 14.2126 145.396 13.7978C147.629 13.3034 149.862 12.8089 152.096 12.3144C152.239 12.2825 152.399 12.2984 152.558 12.2825C152.574 12.3303 152.59 12.3622 152.606 12.4101C152.446 12.5536 152.287 12.6972 152.127 12.8248C151.537 13.3672 150.883 13.8457 150.373 14.4359C149.767 15.1378 149.527 16.031 149.527 16.9881C149.543 25.2987 149.527 33.6094 149.527 41.9359C149.527 43.0047 149.352 43.1323 148.379 42.6537C144.822 40.931 142.908 38.0757 142.445 34.1836C142.429 34.0081 142.365 33.8167 142.397 33.6413C142.509 32.8596 142.11 32.3971 141.536 31.9345C138.665 29.5577 135.825 27.1491 132.97 24.7404C132.858 24.6447 132.747 24.565 132.587 24.4374C132.571 24.6447 132.571 24.7883 132.571 24.9318C132.571 28.7283 132.571 32.5247 132.571 36.3211C132.571 37.8683 133.289 38.969 134.645 39.6708C134.852 39.7825 135.075 39.8623 135.283 39.9899C135.41 40.0696 135.522 40.1813 135.666 40.2929C135.283 40.5163 122.745 40.5322 122.314 40.277C122.538 40.1334 122.713 39.9899 122.905 39.8942C123.607 39.5592 124.276 39.1764 124.739 38.5223C125.17 37.9002 125.409 37.2303 125.409 36.4806C125.409 31.5038 125.409 26.527 125.409 21.5342C125.409 20.3379 124.739 19.4765 123.591 19.1575C123.272 19.0777 122.953 19.0139 122.649 18.9182C122.538 18.8863 122.458 18.7427 122.378 18.647C122.474 18.5673 122.57 18.4397 122.681 18.4237C124.627 18.1206 126.573 17.8335 128.519 17.5623C128.663 17.5464 128.854 17.6581 128.982 17.7538C133.225 21.3109 137.468 24.884 141.711 28.4571C141.919 28.6485 142.11 28.808 142.397 29.0473Z" fill="white"/>
<path fill-rule="evenodd" clip-rule="evenodd" d="M26.1127 22.1085C26.0489 21.933 25.9691 21.7576 25.9213 21.5662C25.2992 19.2851 24.3421 17.1796 22.6832 15.4409C21.1997 13.8936 19.4451 12.9206 17.2438 13.0163C15.2818 13.096 13.7345 14.0212 12.4105 15.393C10.7676 17.0998 9.74668 19.1894 9.17243 21.4545C8.03989 25.9687 8.24725 30.3872 10.3209 34.6143C11.2142 36.4487 12.4903 37.98 14.3087 39.0169C15.6008 39.7506 17.0045 39.958 18.4561 39.8463C19.0303 39.7985 19.4291 39.4795 19.5089 38.9212C19.6365 38.1874 19.7162 37.4377 19.7481 36.7039C19.78 35.3162 19.7322 33.9125 19.7641 32.5247C19.796 31.2645 19.2536 30.2915 18.2009 29.6694C17.515 29.2547 16.7014 29.0473 15.9517 28.7602C15.6646 28.6485 15.3615 28.5847 15.0744 28.4571C14.9468 28.3933 14.883 28.2178 14.8032 28.0902C14.9308 28.0264 15.0425 27.9307 15.1861 27.8829C15.2818 27.851 15.3775 27.8669 15.4732 27.8669C20.115 27.8669 24.7568 27.8669 29.3987 27.8669C29.5901 27.8669 29.7655 27.9786 29.957 28.0264C29.8134 28.154 29.6698 28.3136 29.4944 28.3933C29.1913 28.5369 28.8563 28.6007 28.5373 28.7283C27.4845 29.2068 26.8943 29.9884 26.8943 31.1848C26.8943 33.0989 26.8784 35.0131 26.8943 36.9273C26.8943 37.3101 26.7667 37.5494 26.4955 37.8046C25.044 39.1126 23.3531 39.974 21.5187 40.5641C18.488 41.5212 15.3775 41.92 12.2351 41.4255C8.2313 40.7875 5.13675 38.634 2.85572 35.3162C-1.43518 29.0792 -0.829032 20.641 4.25943 15.0421C8.47057 10.4641 15.3296 9.21986 20.9764 12.0592C21.7261 12.442 22.4758 12.8249 23.2415 13.1598C24.1188 13.5586 25.0599 13.7819 26.017 13.766C26.3679 13.766 26.5274 13.8936 26.5753 14.2286C26.6231 14.6433 26.7029 15.074 26.6869 15.4887C26.6391 17.4188 26.5593 19.3649 26.4796 21.295C26.4636 21.5662 26.352 21.8373 26.2722 22.1085C26.2244 22.1245 26.1606 22.1245 26.1127 22.1085Z" fill="white"/>
<path fill-rule="evenodd" clip-rule="evenodd" d="M85.5791 21.6138C85.7227 21.6138 85.8503 21.6138 85.9939 21.6138C88.4504 21.6138 90.9228 21.6138 93.3793 21.6138C93.475 21.6138 93.5867 21.5978 93.6664 21.6138C93.8898 21.6616 93.9057 21.8052 93.7621 21.9328C93.6345 22.0445 93.475 22.1083 93.3315 22.1721C92.486 22.539 92.0713 23.2249 92.0554 24.1022C92.0075 25.5697 92.0394 27.0213 92.0394 28.4888C92.0394 29.079 92.502 29.5256 93.0922 29.5416C94.9425 29.5575 96.7769 29.5575 98.6273 29.5416C99.2334 29.5416 99.696 29.1268 99.712 28.5207C99.7439 27.0213 99.7439 25.5059 99.696 24.0065C99.6641 23.1451 99.2015 22.4911 98.3721 22.1721C98.3402 22.1561 98.2923 22.1402 98.2604 22.1083C98.1328 21.9807 98.0211 21.869 97.9095 21.7414C98.053 21.6935 98.2126 21.6138 98.3561 21.6138C100.829 21.5978 103.301 21.6138 105.789 21.6138C105.933 21.6138 106.061 21.6297 106.284 21.7414C106.188 21.853 106.108 22.0285 105.981 22.0764C104.753 22.539 104.434 23.4801 104.434 24.6924C104.45 28.9833 104.45 33.2742 104.434 37.5651C104.434 38.6976 104.816 39.559 105.917 40.0056C106.045 40.0535 106.124 40.2289 106.236 40.3406C106.093 40.3884 105.949 40.4842 105.805 40.4842C103.317 40.5001 100.829 40.5001 98.3402 40.4842C98.1966 40.4842 98.069 40.4044 97.9254 40.3725C98.0211 40.2608 98.1009 40.0694 98.2285 40.0216C99.4089 39.559 99.7758 38.6498 99.7598 37.4694C99.7439 36.3528 99.7598 35.2521 99.7598 34.1355C99.7598 33.1625 99.361 32.7637 98.404 32.7637C96.7131 32.7637 95.0223 32.7637 93.3315 32.7637C92.4701 32.7637 92.0554 33.1785 92.0554 34.0239C92.0554 35.2681 92.0554 36.4963 92.0554 37.7405C92.0554 38.7774 92.4701 39.559 93.475 39.9578C93.5548 39.9897 93.6505 40.0216 93.6983 40.0854C93.7781 40.1651 93.826 40.2768 93.8738 40.3884C93.7781 40.4204 93.6824 40.4842 93.5707 40.4842C91.6725 40.4842 89.9179 41.0425 88.1951 41.7443C87.1583 42.159 86.1215 42.5259 84.8613 42.51C85.0527 42.3186 85.1803 42.1909 85.3239 42.0633C86.3129 41.1382 87.0626 40.0694 87.2859 38.7136C87.3497 38.3467 87.3657 37.9639 87.3657 37.581C87.3657 33.2263 87.3657 28.8876 87.3657 24.5329C87.3657 23.4003 86.9828 22.539 85.8663 22.0923C85.7227 22.0285 85.611 21.869 85.4994 21.7573C85.5153 21.7095 85.5472 21.6616 85.5791 21.6138Z" fill="white"/>
<path fill-rule="evenodd" clip-rule="evenodd" d="M52.7523 27.1333C52.7363 27.3567 52.7204 27.4843 52.7204 27.6119C52.7204 30.9297 52.7204 34.2476 52.7204 37.5655C52.7204 38.6821 53.0872 39.5434 54.1879 39.9582C54.2676 39.9901 54.3474 40.022 54.3953 40.0858C54.4591 40.1496 54.5229 40.2613 54.491 40.3251C54.475 40.3889 54.3474 40.4367 54.2676 40.4527C53.7413 40.4686 53.2308 40.4527 52.7044 40.4527C50.6946 40.4527 48.6847 40.4527 46.6748 40.4527C46.5153 40.4527 46.3558 40.4208 46.1963 40.4048C46.1803 40.357 46.1644 40.3251 46.1484 40.2772C46.292 40.1655 46.4037 40.022 46.5632 39.9582C47.6479 39.5275 48.0307 38.6821 48.0307 37.5814C48.0307 33.2108 48.0307 28.8401 48.0307 24.4535C48.0307 23.3529 47.6479 22.5075 46.5632 22.0927C46.4834 22.0608 46.3877 22.0289 46.3399 21.9651C46.276 21.8854 46.2441 21.7737 46.1963 21.6939C46.276 21.662 46.3718 21.5823 46.4515 21.5823C47.9828 21.5823 49.5142 21.5663 51.0455 21.5823C51.1731 21.5823 51.3486 21.7258 51.4443 21.8375C54.3155 25.5063 57.1867 29.1911 60.058 32.8758C60.1537 32.9875 60.2334 33.0991 60.4248 33.1948C60.4248 33.0034 60.4248 32.812 60.4248 32.6365C60.4248 29.9089 60.4248 27.1812 60.4248 24.4535C60.4248 23.3529 60.042 22.5075 58.9573 22.0927C58.8457 22.0449 58.7181 21.9811 58.6542 21.8854C58.6223 21.8375 58.6862 21.678 58.75 21.6142C58.7978 21.5663 58.9095 21.5982 58.9892 21.5982C61.4936 21.5982 63.9979 21.5982 66.5023 21.5982C66.6299 21.5982 66.7575 21.6142 67.0287 21.6301C66.8532 21.8375 66.7735 22.013 66.6458 22.0608C65.4016 22.5234 65.0826 23.4964 65.0826 24.7087C65.0986 28.6806 65.0826 32.6365 65.0986 36.6084C65.0986 38.1716 65.2421 39.7349 65.8961 41.1864C66.0876 41.6012 66.3268 41.9999 66.582 42.4785C66.4066 42.4625 66.263 42.4785 66.1195 42.4466C65.0348 42.2073 64.1574 41.6171 63.4556 40.7717C62.7218 39.9103 62.02 39.0011 61.3181 38.1078C58.5426 34.5666 55.783 31.0095 53.0234 27.4683C52.9756 27.3886 52.8958 27.2928 52.7523 27.1333Z" fill="white"/>
<path fill-rule="evenodd" clip-rule="evenodd" d="M81.4958 17.993C82.7878 19.971 83.7449 22.0606 84.351 24.3097C84.3191 24.3416 84.2713 24.3735 84.2394 24.4054C84.1118 24.3576 83.9682 24.3416 83.8565 24.2778C83.4418 24.0704 83.043 23.8471 82.6283 23.6238C81.735 23.1612 81.081 22.5072 80.5865 21.598C79.1828 18.9501 76.5668 18.4396 74.4612 18.982C72.8661 19.3967 72.1962 21.1833 73.1054 22.5391C73.4563 23.0496 73.9348 23.4962 74.4453 23.8471C76.4552 25.2668 78.4969 26.6386 80.5227 28.0423C81.1289 28.473 81.735 28.9196 82.2774 29.4141C84.5425 31.4718 85.0688 34.0719 84.5265 36.9591C83.9523 39.9739 81.8148 41.8721 78.6564 42.2709C76.6147 42.5261 74.6208 42.4144 72.6587 41.7764C71.5581 41.4254 70.4894 41.3776 69.4047 41.9359C68.8464 41.3776 68.5274 40.7076 68.304 39.9739C67.7298 38.0438 67.65 36.0658 67.9212 34.0878C67.9372 33.9921 67.9691 33.8964 68.0169 33.6731C68.2083 33.9762 68.3359 34.1995 68.4636 34.4228C69.1176 35.4597 69.6918 36.5443 70.4415 37.5014C72.0526 39.5591 74.1741 40.7395 76.838 40.7236C79.3264 40.7076 80.5865 38.4904 80.0282 36.4646C79.8049 35.667 79.2147 35.1247 78.5607 34.678C76.5509 33.2903 74.541 31.9025 72.5311 30.4988C72.0845 30.1798 71.6379 29.8608 71.2072 29.5258C68.9421 27.7711 67.9531 24.3735 69.0059 21.7735C69.9789 19.3648 71.909 18.1366 74.3815 17.674C75.9926 17.3709 77.5717 17.7059 79.135 18.0408C79.9166 18.2004 80.6982 18.3918 81.4958 17.993Z" fill="white"/>
<path fill-rule="evenodd" clip-rule="evenodd" d="M28.0264 41.2822C29.9724 39.8465 31.3283 38.1238 30.9295 35.444C29.9086 36.0182 28.9196 36.5765 27.8828 37.1667C28.3294 36.1458 28.9037 35.2526 29.5577 34.3912C31.5516 31.7911 34.2155 30.1482 37.2781 29.1432C38.4904 28.7444 39.7825 28.553 41.0586 28.3297C41.4574 28.25 41.904 28.3457 42.3187 28.3935C42.6218 28.4254 42.7813 28.6009 42.7016 28.9518C42.6378 29.223 42.6378 29.5101 42.6537 29.7972C42.6856 30.4512 42.9887 30.9298 43.6427 31.169C44.185 31.3605 44.7433 31.5519 45.0624 32.0942C45.1421 32.2218 45.2059 32.3494 45.3016 32.5568C45.0624 32.5728 44.8869 32.5887 44.7114 32.5887C42.0316 32.6366 39.3837 32.8439 36.7517 33.4022C35.6989 33.6255 35.6989 33.6255 35.6989 34.7262C35.6989 35.6833 35.6989 36.6403 35.6989 37.5974C35.6989 38.4109 36.1137 38.8097 36.9272 38.8097C38.0438 38.8097 39.1444 38.7938 40.261 38.8097C42.0635 38.8416 43.4513 38.0919 44.4722 36.6563C44.9188 36.0342 45.2538 35.3323 45.6526 34.6145C45.6845 34.8059 45.7483 34.9973 45.7483 35.1888C45.7642 36.9434 45.3495 38.6183 44.7593 40.2453C44.6636 40.5165 44.4722 40.4686 44.2807 40.4686C41.92 40.4686 39.5592 40.5005 37.1984 40.4686C34.3431 40.4367 31.5197 40.5963 28.7442 41.2822C28.5368 41.33 28.3294 41.33 28.1221 41.3619C28.0902 41.346 28.0583 41.3141 28.0264 41.2822Z" fill="white"/>
<path fill-rule="evenodd" clip-rule="evenodd" d="M109.155 40.2609C109.314 40.1811 109.458 40.0854 109.617 40.0376C109.968 39.9259 110.319 39.8462 110.67 39.7186C111.771 39.3038 112.249 38.602 112.249 37.4375C112.249 33.1945 112.249 28.9355 112.249 24.6924C112.249 23.4642 111.723 22.7304 110.542 22.3317C110.223 22.22 109.888 22.1402 109.569 22.0445C109.426 21.9967 109.298 21.901 109.139 21.8053C109.458 21.566 119.842 21.5181 120.368 21.7574C120.193 21.8691 120.081 21.9648 119.954 22.0126C119.603 22.1402 119.252 22.22 118.917 22.3317C117.752 22.7464 117.258 23.4482 117.258 24.6765C117.258 28.9195 117.258 33.1785 117.258 37.4216C117.258 38.5541 117.705 39.24 118.757 39.6707C119.156 39.8302 119.587 39.9259 120.002 40.0695C120.113 40.1173 120.209 40.229 120.305 40.3247C120.193 40.3726 120.081 40.4683 119.954 40.4683C116.492 40.4842 113.031 40.4683 109.569 40.4683C109.458 40.4683 109.33 40.4204 109.218 40.4045C109.187 40.3726 109.171 40.3088 109.155 40.2609Z" fill="white"/>
<path fill-rule="evenodd" clip-rule="evenodd" d="M67.9534 14.5636C66.9803 14.7391 66.0871 14.9784 65.1619 15.0741C62.2428 15.3931 59.3237 15.6802 56.4525 16.3661C54.7936 16.7649 53.1984 17.3232 51.6671 18.0889C51.5395 18.1527 51.4278 18.2324 51.3002 18.2962C51.3162 18.3281 51.3321 18.376 51.3481 18.4079C51.7628 18.2962 52.1616 18.1846 52.6401 18.041C52.6242 18.7429 53.1027 18.9502 53.5972 19.1416C53.9641 19.2852 54.331 19.4607 54.6819 19.6202C54.6659 19.668 54.6659 19.7159 54.65 19.7637C54.3788 19.7637 54.1076 19.7797 53.8365 19.7637C51.8426 19.668 49.9763 19.1895 48.3173 18.041C47.7909 17.6741 47.3283 17.2594 47.1688 16.5894C47.0891 16.2864 47.1688 16.095 47.3922 15.9035C49.3542 14.2127 51.5714 12.9685 53.98 12.0433C56.8034 10.9586 59.7066 10.1292 62.6416 9.41136C63.4392 9.21994 64.0294 9.45921 64.4919 10.1611C64.795 10.6396 65.0662 11.1181 65.3693 11.5967C65.7999 12.2985 66.3104 12.9685 67.0441 13.2716C67.6343 13.5427 67.73 13.9734 67.9534 14.5636Z" fill="white"/>
<path fill-rule="evenodd" clip-rule="evenodd" d="M97.9245 19.6043C98.3392 19.4288 98.7539 19.2533 99.1527 19.0779C99.5515 18.9024 99.9343 18.7429 99.9822 18.2325C99.9822 18.1846 100.221 18.1049 100.333 18.1208C100.668 18.2006 101.003 18.3122 101.322 18.4079C101.338 18.376 101.354 18.3441 101.37 18.2963C101.242 18.2325 101.131 18.1527 101.003 18.0889C98.8496 16.9883 96.5367 16.3024 94.16 15.9355C91.9587 15.6005 89.7255 15.3772 87.5242 15.0582C86.6948 14.9465 85.8653 14.7391 85.0518 14.5796C84.9401 14.5637 84.8444 14.4999 84.7168 14.452C84.8923 13.9416 84.988 13.5109 85.5941 13.2557C86.3279 12.9366 86.8383 12.2667 87.269 11.5808C87.5721 11.1022 87.8433 10.6077 88.1463 10.1452C88.593 9.45926 89.1513 9.18808 89.9488 9.39545C93.4741 10.2568 96.9674 11.2298 100.285 12.7293C102.088 13.5428 103.747 14.5956 105.246 15.8876C105.501 16.1109 105.597 16.3502 105.438 16.6214C105.23 17.0042 105.023 17.4509 104.688 17.7061C102.758 19.2374 100.525 19.7797 98.0999 19.7319C98.068 19.7319 98.0202 19.7159 97.9883 19.7C97.9883 19.7 97.9723 19.6681 97.9245 19.6043Z" fill="white"/>
<path fill-rule="evenodd" clip-rule="evenodd" d="M84.4152 8.21492C84.1759 8.31062 83.9366 8.42228 83.6974 8.51799C82.5489 8.94868 81.4004 9.33151 80.2678 9.77814C79.1991 10.2088 78.4015 10.9904 77.9708 12.0751C77.4923 13.2715 77.0935 14.4997 76.6469 15.712C76.615 15.7918 76.615 15.8875 76.5671 15.9513C76.5033 16.047 76.3917 16.1746 76.3119 16.1746C76.2322 16.1746 76.1045 16.031 76.0726 15.9353C75.8812 15.377 75.7696 14.7868 75.5463 14.2445C75.1634 13.2874 74.7487 12.3304 74.3021 11.4052C73.9033 10.6236 73.2014 10.1131 72.4038 9.79409C71.2554 9.33151 70.0909 8.93272 68.9265 8.50204C68.6872 8.40633 68.4639 8.29467 68.2246 8.19897C68.2246 8.15111 68.2246 8.08731 68.2246 8.03945C68.4639 7.92779 68.7031 7.80018 68.9584 7.70447C69.9314 7.35355 70.9204 7.03452 71.8934 6.66764C73.329 6.14125 74.3499 5.16822 74.8922 3.71665C75.2751 2.67982 75.626 1.62703 75.9769 0.574247C75.9929 0.526393 75.9929 0.462588 76.0248 0.414734C76.1205 0.271172 76.2322 0.143562 76.3279 0C76.4236 0.143562 76.5671 0.271172 76.615 0.430685C76.8543 1.16444 77.0935 1.8982 77.3009 2.63196C77.9549 4.92895 79.4224 6.39647 81.7194 7.05047C82.3894 7.24189 83.0593 7.46521 83.7133 7.70447C83.9366 7.78423 84.16 7.91184 84.3833 8.00755C84.4152 8.10326 84.4152 8.15111 84.4152 8.21492Z" fill="white"/>
<path fill-rule="evenodd" clip-rule="evenodd" d="M44.6639 27.165C44.4724 26.7344 44.297 26.3037 44.0577 25.8889C43.3878 24.6926 42.5104 23.7196 41.1067 23.3367C40.7877 23.257 40.4368 23.2091 40.1177 23.1932C39.049 23.1772 37.9803 23.1772 36.9115 23.1932C36.114 23.1932 35.6992 23.6079 35.6992 24.4214C35.6992 25.7932 35.6992 27.181 35.6833 28.5528C35.6833 28.7123 35.5716 28.9356 35.4281 28.9994C33.8329 29.797 32.3654 30.786 31.0096 32.094C31.0096 31.8707 31.0096 31.7271 31.0096 31.5836C31.0096 29.2228 30.9936 26.862 30.9936 24.5012C30.9936 22.8582 30.4034 21.5183 28.9678 20.625C28.888 20.5772 28.8242 20.4974 28.7445 20.4336C28.7445 20.4336 28.7445 20.4017 28.7285 20.3379C28.9359 20.3538 29.1273 20.3698 29.3347 20.4017C30.8979 20.6888 32.4452 21.1036 34.0243 21.2631C36.1937 21.4864 38.379 21.5183 40.5484 21.614C41.5374 21.6459 42.5104 21.6299 43.4994 21.614C43.7387 21.614 43.8822 21.6778 43.962 21.9171C44.4565 23.3846 44.8074 24.884 44.8234 26.4472C44.8234 26.6865 44.7915 26.9258 44.7596 27.165C44.7117 27.165 44.6798 27.165 44.6639 27.165Z" fill="white"/>
<path fill-rule="evenodd" clip-rule="evenodd" d="M55.7509 46.7533C55.5276 46.8649 55.4 46.9447 55.2724 47.0085C54.5865 47.2797 54.2834 47.7741 54.2834 48.5079C54.2994 50.0073 54.2834 51.5227 54.2834 53.0221C54.2834 53.8197 54.6025 54.2663 55.3681 54.5375C55.5755 54.6172 55.7828 54.697 55.9902 54.7768C55.9743 54.8246 55.9583 54.8565 55.9583 54.9044C54.1558 54.9044 52.3533 54.9044 50.5349 54.9044C50.5189 54.8725 50.5189 54.8406 50.503 54.8246C50.6146 54.7449 50.7103 54.6491 50.822 54.5853C51.2367 54.378 51.492 54.027 51.5079 53.5964C51.5398 52.0172 51.5239 50.438 51.46 48.811C51.3962 48.9386 51.3165 49.0821 51.2527 49.2098C50.5668 50.757 49.8809 52.3203 49.179 53.8675C49.0036 54.2663 48.7324 54.6172 48.4931 54.9841C48.4453 54.9682 48.3974 54.9522 48.3495 54.9363C47.4084 52.8307 46.4832 50.7411 45.5421 48.6355C45.4943 48.6355 45.4624 48.6515 45.4145 48.6515C45.4145 48.8429 45.4145 49.0183 45.4145 49.2098C45.4145 50.454 45.4305 51.7141 45.4145 52.9583C45.3986 53.6921 45.5581 54.3301 46.3078 54.6651C46.3716 54.697 46.4035 54.7768 46.4832 54.9044C45.2709 54.9044 44.1065 54.9044 42.9421 54.9044C42.9261 54.8725 42.9261 54.8406 42.9102 54.7927C43.0856 54.713 43.2451 54.6332 43.4206 54.5853C44.3298 54.2823 44.6329 53.8516 44.6488 52.9105C44.6488 51.5067 44.6329 50.103 44.6488 48.6834C44.6648 47.8379 44.3617 47.2478 43.5323 46.9606C43.4365 46.9287 43.3568 46.849 43.1494 46.7214C43.3727 46.6895 43.4685 46.6575 43.5642 46.6575C44.7765 46.6575 45.9888 46.6576 47.1851 46.6416C47.4563 46.6416 47.5679 46.7533 47.6796 46.9766C48.2698 48.3324 48.8759 49.6723 49.514 51.1239C49.6256 50.9165 49.6895 50.7889 49.7373 50.6613C50.2797 49.4331 50.822 48.1889 51.3803 46.9766C51.4441 46.849 51.6196 46.6735 51.7312 46.6575C52.9595 46.6416 54.1718 46.6416 55.4 46.6416C55.4957 46.6735 55.5595 46.7054 55.7509 46.7533Z" fill="white"/>
<path fill-rule="evenodd" clip-rule="evenodd" d="M66.9169 51.6663C66.9169 52.2884 66.8531 52.8945 66.9328 53.4688C66.9966 54.027 67.4433 54.3461 67.9697 54.5375C68.193 54.6172 68.4004 54.697 68.6237 54.7768C68.6077 54.8246 68.6077 54.8565 68.5918 54.9044C66.566 54.9044 64.5401 54.9044 62.5143 54.9044C62.4984 54.8884 62.4824 54.8565 62.4824 54.8406C62.5781 54.7768 62.6898 54.713 62.7855 54.6651C62.961 54.5853 63.1683 54.5534 63.3438 54.4577C63.8861 54.1866 64.2052 53.7559 64.1892 53.1178C64.1733 51.5865 64.1733 50.0552 64.1892 48.5239C64.1892 47.7901 63.8702 47.2956 63.1843 47.0244C63.0567 46.9766 62.9291 46.8968 62.8174 46.833C62.8334 46.8011 62.8333 46.7533 62.8493 46.7214C62.9769 46.7054 63.1045 46.6895 63.2481 46.6895C64.7794 46.6895 66.3107 46.6895 67.8421 46.6895C68.7513 46.6895 69.5967 46.8649 70.3783 47.3594C71.9415 48.3484 71.9415 50.0392 70.3624 51.0282C69.5807 51.5227 68.7034 51.6982 67.7942 51.6982C67.4911 51.6663 67.22 51.6663 66.9169 51.6663ZM66.8212 51.0761C67.0285 51.0761 67.1721 51.108 67.3157 51.0761C68.1451 50.8527 68.8151 50.0233 68.7513 49.0183C68.7034 48.157 68.0654 47.4073 67.204 47.2158C66.869 47.1361 66.8052 47.2637 66.8212 47.5349C66.8212 48.3005 66.8212 49.0821 66.8212 49.8478C66.8212 50.2466 66.8212 50.6454 66.8212 51.0761Z" fill="white"/>
<path fill-rule="evenodd" clip-rule="evenodd" d="M82.3892 46.4503C83.2346 46.4503 84.0481 46.4343 84.8617 46.4662C84.9893 46.4662 85.1328 46.6736 85.1966 46.8012C86.1856 49.0025 87.1746 51.2038 88.1317 53.421C88.4028 54.0271 88.7857 54.4578 89.4397 54.6173C89.5673 54.6492 89.6949 54.729 89.8066 54.7928C89.7906 54.8247 89.7906 54.8566 89.7746 54.8885C87.9881 54.8885 86.2175 54.8885 84.431 54.8885C84.415 54.8566 84.3991 54.8247 84.3831 54.7928C84.5267 54.729 84.6702 54.6333 84.8138 54.5854C85.5635 54.3302 85.6911 54.0431 85.388 53.3253C84.9095 52.1927 84.9095 52.1927 83.6813 52.1927C82.9953 52.1927 82.3094 52.1768 81.6076 52.2087C81.464 52.2087 81.2726 52.3363 81.2088 52.4639C81.0333 52.7989 80.8738 53.1498 80.7462 53.5008C80.5548 54.059 80.6984 54.3462 81.2567 54.5376C81.4481 54.6014 81.6395 54.6811 81.8309 54.7609C81.8309 54.7928 81.8149 54.8407 81.8149 54.8726C80.6346 54.8726 79.4542 54.8726 78.2897 54.8726C78.2738 54.8407 78.2738 54.8247 78.2578 54.7928C78.4014 54.729 78.529 54.6333 78.6725 54.6014C79.2787 54.4419 79.6615 54.075 79.9167 53.5008C80.7622 51.5866 81.6076 49.6724 82.469 47.7742C82.6285 47.4074 82.6923 47.1043 82.469 46.7534C82.4371 46.6736 82.4371 46.5779 82.3892 46.4503ZM83.1868 48.2528C83.1549 48.2528 83.107 48.2528 83.0751 48.2528C82.6125 49.2896 82.1499 50.3424 81.6554 51.4271C82.6604 51.4271 83.5855 51.4271 84.6064 51.4271C84.1119 50.3424 83.6494 49.3056 83.1868 48.2528Z" fill="white"/>
<path fill-rule="evenodd" clip-rule="evenodd" d="M120.639 54.904C118.614 54.904 116.588 54.904 114.562 54.904C114.546 54.8721 114.546 54.8402 114.53 54.8083C114.658 54.7445 114.801 54.6648 114.929 54.6169C115.982 54.266 116.237 53.9151 116.237 52.7985C116.237 51.2193 116.237 49.6561 116.237 48.0769C116.237 47.9174 116.237 47.7738 116.237 47.4867C115.551 47.5664 114.897 47.5824 114.275 47.726C113.573 47.8855 113.477 48.683 113.078 49.1775C113.047 49.1616 113.015 49.1297 112.967 49.1137C112.967 48.3162 112.967 47.5345 112.967 46.7051C116.045 46.7051 119.108 46.7051 122.219 46.7051C122.219 47.5026 122.219 48.3002 122.219 49.0978C122.187 49.1137 122.155 49.1456 122.107 49.1616C121.724 48.6671 121.612 47.8855 120.911 47.726C120.288 47.5824 119.65 47.5505 118.949 47.4707C118.949 47.7419 118.949 47.8855 118.949 48.029C118.949 49.672 118.949 51.315 118.949 52.958C118.949 53.8034 119.268 54.25 120.081 54.5372C120.288 54.601 120.48 54.6807 120.687 54.7605C120.671 54.8083 120.655 54.8562 120.639 54.904Z" fill="white"/>
<path fill-rule="evenodd" clip-rule="evenodd" d="M105.135 49.433C105.04 49.2735 104.944 49.098 104.848 48.9385C104.194 47.9016 103.269 47.3433 102.009 47.5188C100.813 47.6943 100.127 48.4759 99.7757 49.5606C99.1536 51.4747 100.095 53.3251 101.913 53.8196C103.205 54.1705 104.481 53.692 105.231 52.5913C105.295 52.4956 105.375 52.3999 105.438 52.3042C105.47 52.3201 105.502 52.3361 105.534 52.352C105.454 52.5435 105.407 52.7668 105.295 52.9422C104.689 54.0588 103.7 54.6171 102.503 54.8405C100.86 55.1276 99.3451 54.8405 98.037 53.7398C96.1229 52.1128 96.1388 49.3692 98.1009 47.8059C99.6322 46.5777 101.371 46.4182 103.205 46.9765C103.732 47.136 104.226 47.3912 104.8 47.1998C104.88 47.1679 105.119 47.2955 105.119 47.3593C105.183 48.0452 105.231 48.7311 105.279 49.433C105.231 49.417 105.183 49.417 105.135 49.433Z" fill="white"/>
<path fill-rule="evenodd" clip-rule="evenodd" d="M30.3398 46.6895C32.4295 46.6895 34.4393 46.6895 36.4651 46.6895C36.4811 46.7214 36.497 46.7373 36.513 46.7692C36.4013 46.833 36.2897 46.9128 36.1621 46.9606C35.0295 47.3594 34.8062 47.6625 34.8062 48.8748C34.8062 50.2306 34.8062 51.5705 34.8062 52.9264C34.8062 53.8516 35.1252 54.2823 36.0026 54.5694C36.1461 54.6172 36.2897 54.6811 36.4332 54.7289C36.4651 54.7449 36.4811 54.7927 36.5449 54.8884C34.4712 54.8884 32.4454 54.8884 30.4196 54.8884C30.4036 54.8565 30.3877 54.8406 30.3717 54.8087C30.4994 54.7449 30.627 54.6651 30.7705 54.6172C31.8233 54.2504 32.0785 53.8994 32.0785 52.7988C32.0785 51.411 32.0785 50.0233 32.0785 48.6196C32.0785 47.7422 31.7595 47.3116 30.93 47.0244C30.7705 46.9766 30.611 46.9128 30.4515 46.849C30.4356 46.833 30.4196 46.7852 30.3398 46.6895Z" fill="white"/>
<path fill-rule="evenodd" clip-rule="evenodd" d="M111.644 28.505C111.644 30.0523 111.644 31.472 111.644 32.9076C109.682 32.78 107.752 32.6683 105.662 32.5248C105.933 32.2057 106.125 31.9027 106.38 31.6794C106.603 31.4879 106.874 31.3603 107.162 31.2806C108.119 30.9934 108.454 30.4192 108.374 29.3026C108.31 28.4731 108.374 28.3455 109.219 28.3455C110.017 28.3296 110.814 28.4412 111.644 28.505Z" fill="white"/>
<path fill-rule="evenodd" clip-rule="evenodd" d="M123.097 37.1344C121.454 36.1295 119.763 35.2522 117.993 34.5344C117.897 34.5024 117.785 34.3429 117.785 34.2313C117.77 33.1944 117.77 32.1576 117.77 31.041C120.194 32.5723 121.917 34.6141 123.097 37.1344Z" fill="white"/>
<path fill-rule="evenodd" clip-rule="evenodd" d="M66.8203 51.0757C66.8203 50.645 66.8203 50.2462 66.8203 49.8475C66.8203 49.0818 66.8203 48.3002 66.8203 47.5345C66.8203 47.2474 66.8682 47.1357 67.2031 47.2155C68.0645 47.4229 68.7026 48.1726 68.7504 49.018C68.8142 50.0389 68.1443 50.8683 67.3148 51.0757C67.1872 51.1076 67.0277 51.0757 66.8203 51.0757Z" fill="white"/>
<path fill-rule="evenodd" clip-rule="evenodd" d="M83.1856 48.2524C83.6482 49.2893 84.1108 50.3421 84.6053 51.4427C83.6004 51.4427 82.6752 51.4427 81.6543 51.4427C82.1328 50.358 82.5954 49.3052 83.074 48.2684C83.1059 48.2524 83.1378 48.2524 83.1856 48.2524Z" fill="white"/>
</svg>
